<?xml version="1.0" standalone="no"?>
<!DOCTYPE svg PUBLIC "-//W3C//DTD SVG 20010904//EN"
 "http://www.w3.org/TR/2001/REC-SVG-20010904/DTD/svg10.dtd">
<svg version="1.0" xmlns="http://www.w3.org/2000/svg"
 width="400.000000pt" height="400.000000pt" viewBox="0 0 400.000000 400.000000"
 preserveAspectRatio="xMidYMid meet">
<metadata>
Created by potrace 1.11, written by Peter Selinger 2001-2013
</metadata>
<g transform="translate(0.000000,400.000000) scale(0.100000,-0.100000)"
fill="#000000" stroke="none">
<path d="M0 2000 l0 -2000 2000 0 2000 0 0 2000 0 2000 -2000 0 -2000 0 0
-2000z m2055 280 l-280 -280 280 -280 280 -280 -105 -105 -105 -105 -280 279
-280 280 -90 -87 c-144 -139 -241 -179 -412 -170 -82 5 -102 10 -169 42 -239
118 -335 398 -217 636 47 96 118 167 217 216 67 32 87 37 169 42 158 8 263
-30 380 -139 l62 -57 -100 -101 c-55 -55 -105 -101 -110 -101 -6 0 -29 18 -50
41 -53 54 -97 72 -163 66 -39 -3 -61 -11 -89 -33 -98 -80 -98 -208 0 -288 45
-36 123 -46 177 -22 22 9 208 188 495 475 l460 461 105 -105 105 -105 -280
-280z m955 -665 l-385 -385 -105 105 -105 105 280 280 280 280 -280 280 -280
280 105 105 105 105 385 -385 385 -385 -385 -385z"/>
</g>
</svg>
