<svg width="13" height="13" viewBox="0 0 13 13" fill="none" xmlns="http://www.w3.org/2000/svg">
<path fill-rule="evenodd" clip-rule="evenodd" d="M12.04 10.1466C12.2911 10.3977 12.4321 10.7382 12.4321 11.0933C12.4321 11.4484 12.2911 11.7889 12.04 12.04C11.7889 12.291 11.4484 12.4321 11.0933 12.4321C10.7383 12.4321 10.3977 12.291 10.1467 12.04L6.38667 8.26664L2.61334 12.04C2.36227 12.291 2.02174 12.4321 1.66667 12.4321C1.3116 12.4321 0.971075 12.291 0.720003 12.04C0.468932 11.7889 0.327881 11.4484 0.327881 11.0933C0.327881 10.9175 0.36251 10.7434 0.42979 10.581C0.497071 10.4185 0.595685 10.271 0.720003 10.1466L4.49334 6.38664L0.733337 2.59997C0.482265 2.3489 0.341214 2.00837 0.341214 1.6533C0.341215 1.29823 0.482265 0.957708 0.733337 0.706636C0.984408 0.455565 1.32493 0.314514 1.68 0.314514C2.03507 0.314514 2.3756 0.455565 2.62667 0.706636L6.4 4.47997L10.16 0.706636C10.2843 0.582318 10.4319 0.483704 10.5943 0.416423C10.7568 0.349143 10.9309 0.314514 11.1067 0.314514C11.2825 0.314514 11.4566 0.349143 11.619 0.416423C11.7814 0.483704 11.929 0.582318 12.0533 0.706636C12.1777 0.830955 12.2763 0.978541 12.3435 1.14097C12.4108 1.3034 12.4455 1.47749 12.4455 1.6533C12.4455 1.82911 12.4108 2.00321 12.3435 2.16564C12.2763 2.32806 12.1777 2.47565 12.0533 2.59997L8.28 6.3733L12.0533 10.1333L12.04 10.1466Z" fill="black"/>
</svg>
