<svg width="249" height="189" viewBox="0 0 249 189" fill="none" xmlns="http://www.w3.org/2000/svg">
<path d="M213.981 75.3416C203.037 32.3309 165.222 1.2832 120.835 0.0379007C97.3687 -0.62045 72.6759 7.15786 54.6976 34.377C22.5596 83.0341 56.6726 116.658 80.4553 132.635C91.9452 140.369 102.298 149.67 111.215 160.266C127.279 179.318 158.183 202.993 194.989 165.898C221.666 139.011 221.271 103.991 213.981 75.3416Z" fill="#F2F2F2"/>
<path opacity="0.1" d="M164.688 116.057L187.208 93.6188L164.688 71.1802L171.554 64.3411L200.939 93.6188L171.554 122.897L164.688 116.057Z" fill="black"/>
<path opacity="0.1" d="M100.378 95.2197H109.533V86.0704H100.378V95.2197ZM146.333 86.0704H137.179V95.2197H146.333V86.0704ZM118.778 95.2197H127.933V86.0704H118.778V95.2197Z" fill="black"/>
<path opacity="0.1" d="M87.9739 115.829L65.4311 93.39L87.951 70.9514L81.0852 64.1123L51.7224 93.39L81.1081 122.668L87.9739 115.829Z" fill="black"/>
<path d="M249 172.074C249 175.864 193.259 189 124.5 189C55.7405 189 0 175.864 0 172.074C0 168.284 55.7405 175.276 124.5 175.276C193.259 175.276 249 168.284 249 172.074Z" fill="#3F3D56"/>
<path opacity="0.1" d="M249 172.074C249 175.864 193.259 189 124.5 189C55.7405 189 0 175.864 0 172.074C0 168.284 55.7405 175.276 124.5 175.276C193.259 175.276 249 168.284 249 172.074Z" fill="black"/>
<path d="M124.5 178.936C193.259 178.936 249 175.864 249 172.074C249 168.284 193.259 165.212 124.5 165.212C55.7405 165.212 0 168.284 0 172.074C0 175.864 55.7405 178.936 124.5 178.936Z" fill="#3F3D56"/>
<path d="M144.799 139.058C144.799 153.701 153.99 165.55 165.349 165.55L144.799 139.058Z" fill="#3F3D56"/>
<path d="M165.349 165.55C165.349 150.743 175.605 138.761 188.281 138.761L165.349 165.55Z" fill="#69D5B1"/>
<path d="M152.244 140.386C152.244 154.295 158.105 165.55 165.349 165.55L152.244 140.386Z" fill="#69D5B1"/>
<path d="M165.349 165.55C165.349 146.629 177.204 131.319 191.855 131.319L165.349 165.55Z" fill="#3F3D56"/>
<path d="M161.025 165.736C161.025 165.736 163.94 165.647 164.818 165.022C165.696 164.397 169.301 163.65 169.519 164.653C169.737 165.655 173.898 169.638 170.608 169.665C167.318 169.691 162.963 169.153 162.087 168.619C161.21 168.085 161.025 165.736 161.025 165.736Z" fill="#A8A8A8"/>
<path opacity="0.2" d="M170.667 169.316C167.377 169.343 163.022 168.804 162.145 168.27C161.478 167.864 161.212 166.405 161.123 165.733C161.061 165.735 161.025 165.736 161.025 165.736C161.025 165.736 161.21 168.085 162.087 168.619C162.963 169.153 167.318 169.691 170.608 169.665C171.558 169.657 171.886 169.32 171.868 168.819C171.736 169.122 171.374 169.31 170.667 169.316Z" fill="black"/>
<path d="M198.086 87.5707C198.086 87.5707 191.04 82.2238 190.505 84.1838C189.97 86.1438 195.675 90.5983 195.675 90.5983L198.086 87.5707Z" fill="#FFB9B9"/>
<path opacity="0.1" d="M198.086 87.5707C198.086 87.5707 191.04 82.2238 190.505 84.1838C189.97 86.1438 195.675 90.5983 195.675 90.5983L198.086 87.5707Z" fill="black"/>
<path d="M221.347 70.6422C221.347 70.6422 212.968 85.6093 212.79 87.7474C212.612 89.8856 212.612 90.0638 211.899 89.8856C211.185 89.7074 201.38 88.6383 200.489 88.9947C199.597 89.3511 197.814 86.8565 197.814 86.8565C197.814 86.8565 194.427 90.242 195.14 90.9547C195.853 91.6674 197.993 92.0238 198.349 92.9147C198.706 93.8056 199.241 94.6965 200.845 94.5183C202.45 94.3401 213.325 97.3692 214.751 96.8346C216.177 96.3001 216.534 95.4092 217.247 95.4092C217.96 95.4092 219.386 94.6965 219.386 94.5183C219.386 94.3401 224.378 84.8965 224.378 84.8965C224.378 84.8965 230.261 72.0676 221.347 70.6422Z" fill="#D0CDE1"/>
<path opacity="0.1" d="M221.347 70.6422C221.347 70.6422 212.968 85.6093 212.79 87.7474C212.612 89.8856 212.612 90.0638 211.899 89.8856C211.185 89.7074 201.38 88.6383 200.489 88.9947C199.597 89.3511 197.814 86.8565 197.814 86.8565C197.814 86.8565 194.427 90.242 195.14 90.9547C195.853 91.6674 197.993 92.0238 198.349 92.9147C198.706 93.8056 199.241 94.6965 200.845 94.5183C202.45 94.3401 213.325 97.3692 214.751 96.8346C216.177 96.3001 216.534 95.4092 217.247 95.4092C217.96 95.4092 219.386 94.6965 219.386 94.5183C219.386 94.3401 224.378 84.8965 224.378 84.8965C224.378 84.8965 230.261 72.0676 221.347 70.6422Z" fill="black"/>
<path d="M209.191 60.7751C209.115 61.7213 209.13 62.6726 209.236 63.6159C209.507 65.663 210.45 67.7969 209.559 69.7078C209.236 70.4014 208.688 71.0057 208.39 71.7077C207.759 73.1936 208.331 74.8417 208.245 76.4232C208.134 78.4661 206.834 80.4347 204.857 81.5542C208.235 81.6591 211.449 79.9895 213.575 77.7143C215.701 75.4392 216.884 72.6172 217.772 69.7938C218.228 68.4679 218.521 67.0912 218.643 65.6944C218.714 64.892 218.62 64.0836 218.366 63.3188C218.054 62.5717 217.643 61.8699 217.144 61.2321C216.611 60.484 216.064 59.7213 215.279 59.1647C214.312 58.4791 212.446 57.7908 211.163 57.8906C209.589 58.013 209.257 59.6832 209.191 60.7751Z" fill="#2F2E41"/>
<path d="M214.394 66.3659C214.394 66.3659 216.356 73.3149 214.751 75.2749C213.147 77.2349 224.378 74.384 224.378 74.384C224.378 74.384 218.851 68.8604 221.526 65.2968L214.394 66.3659Z" fill="#FFB9B9"/>
<path opacity="0.1" d="M214.394 66.3659C214.394 66.3659 216.356 73.3149 214.751 75.2749C213.147 77.2349 224.378 74.384 224.378 74.384C224.378 74.384 218.851 68.8604 221.526 65.2968L214.394 66.3659Z" fill="black"/>
<path d="M164.688 111.712L187.208 89.2729L164.688 66.8342L171.554 59.9951L200.939 89.2729L171.554 118.551L164.688 111.712Z" fill="#69D5B1"/>
<path d="M207.976 159.019V164.187L210.651 167.394L212.968 166.325L212.255 158.841L207.976 159.019Z" fill="#FFB9B9"/>
<path d="M209.046 163.83C209.046 163.83 208.333 161.336 207.085 163.118C205.837 164.899 204.589 168.819 203.876 168.998C203.163 169.176 198.171 174.699 203.163 174.699C208.155 174.699 209.759 172.383 209.759 172.383C209.759 172.383 214.751 170.423 214.751 170.067C214.751 169.71 214.038 163.118 213.681 163.118C213.325 163.118 213.147 164.365 212.255 164.365C211.364 164.365 209.046 163.83 209.046 163.83Z" fill="#2F2E41"/>
<path d="M219.921 159.91L219.743 164.721L224.021 166.503V159.554L219.921 159.91Z" fill="#FFB9B9"/>
<path d="M224.556 164.721C224.556 164.721 222.239 162.227 220.991 162.761C220.373 163.01 219.777 163.308 219.208 163.652C219.208 163.652 218.495 165.968 218.138 167.928C217.782 169.888 217.604 170.779 217.247 171.492C216.89 172.205 216.534 174.877 220.099 175.234C223.665 175.59 224.735 173.63 224.735 173.63L225.626 168.998C225.626 168.998 225.27 164.721 224.556 164.721Z" fill="#2F2E41"/>
<path d="M210.294 108.594C210.294 108.594 205.124 120.176 205.837 130.689C205.837 130.689 204.054 134.787 205.124 141.201C206.194 147.616 207.62 160.445 207.62 160.445C207.62 160.445 212.433 160.979 212.79 160.089C212.79 160.089 213.147 151.18 213.503 150.823C213.86 150.467 213.325 142.271 212.79 140.667C212.255 139.063 217.782 123.205 217.782 123.205L216.356 103.427L210.294 108.594Z" fill="#2F2E41"/>
<path opacity="0.1" d="M210.294 108.594C210.294 108.594 205.124 120.176 205.837 130.689C205.837 130.689 204.054 134.787 205.124 141.201C206.194 147.616 207.62 160.445 207.62 160.445C207.62 160.445 212.433 160.979 212.79 160.089C212.79 160.089 213.147 151.18 213.503 150.823C213.86 150.467 213.325 142.271 212.79 140.667C212.255 139.063 217.782 123.205 217.782 123.205L216.356 103.427L210.294 108.594Z" fill="black"/>
<path d="M208.868 107.882L212.255 115.187C212.255 115.187 213.86 131.758 214.751 133.896C214.751 133.896 215.108 139.954 216.712 141.914C218.317 143.874 219.565 161.158 219.565 161.158C219.565 161.158 224.022 162.405 224.378 161.158C224.735 159.91 225.804 151.358 225.804 151.358C225.804 151.358 226.161 144.052 224.2 139.241C222.239 134.431 226.518 117.147 226.518 117.147C226.518 117.147 230.975 108.773 224.556 102.002L208.868 107.882Z" fill="#2F2E41"/>
<path d="M218.317 68.504C222.354 68.504 225.626 65.2333 225.626 61.1986C225.626 57.164 222.354 53.8932 218.317 53.8932C214.28 53.8932 211.007 57.164 211.007 61.1986C211.007 65.2333 214.28 68.504 218.317 68.504Z" fill="#FFB9B9"/>
<path d="M225.091 72.2458C225.091 72.2458 217.425 72.2458 216.356 73.1367C216.091 73.3882 215.74 73.5285 215.375 73.5285C215.01 73.5285 214.659 73.3882 214.395 73.1367C214.395 73.1367 211.72 73.3149 211.007 75.453C210.294 77.5912 208.155 80.4421 208.155 80.4421C208.155 80.4421 204.946 82.7584 206.728 88.8165C208.511 94.8747 207.085 104.675 207.085 104.675C207.085 104.675 205.659 106.813 207.085 107.704C208.511 108.595 209.046 108.951 208.868 109.664C208.69 110.376 225.091 103.784 225.091 102.536C225.091 101.289 224.735 100.22 225.091 99.6855C225.448 99.151 225.804 98.2601 225.448 97.3692C225.091 96.4783 225.804 96.3001 225.626 95.4092C225.448 94.5183 226.518 87.9256 227.231 85.0747C227.944 82.2239 227.766 72.424 225.091 72.2458Z" fill="#D0CDE1"/>
<path d="M198.086 89.7089C198.086 89.7089 191.04 84.362 190.505 86.322C189.97 88.282 195.675 92.7365 195.675 92.7365L198.086 89.7089Z" fill="#FFB9B9"/>
<path d="M221.347 73.1366C221.347 73.1366 212.968 88.1037 212.79 90.2419C212.612 92.3801 212.612 92.5582 211.899 92.3801C211.185 92.2019 201.38 91.1328 200.489 91.4892C199.597 91.8455 197.814 89.351 197.814 89.351C197.814 89.351 194.427 92.7364 195.14 93.4491C195.853 94.1619 197.993 94.5182 198.349 95.4091C198.706 96.3 199.241 97.1909 200.845 97.0127C202.45 96.8346 213.325 99.8636 214.751 99.3291C216.177 98.7945 216.534 97.9036 217.247 97.9036C217.96 97.9036 219.386 97.1909 219.386 97.0127C219.386 96.8346 224.378 87.391 224.378 87.391C224.378 87.391 230.261 74.5621 221.347 73.1366Z" fill="#D0CDE1"/>
<path d="M214.697 65.866C214.596 65.1424 214.225 64.4861 214.035 63.7807C213.886 63.2161 213.853 62.6273 213.938 62.0496C214.022 61.472 214.223 60.9174 214.528 60.4193C215.576 58.7269 217.635 57.9773 219.07 56.5975C219.1 57.3003 219.588 57.901 220.127 58.353C220.667 58.805 221.285 59.1716 221.742 59.7069C222.181 60.2717 222.501 60.9193 222.682 61.6108C222.964 62.412 223.09 63.2595 223.054 64.1078C223.033 64.5318 222.927 64.9471 222.741 65.3286C222.555 65.71 222.293 66.0497 221.971 66.327C221.437 66.7493 220.689 66.9905 220.431 67.6209C220.329 67.9358 220.3 68.2696 220.345 68.5975C220.468 70.5578 220.582 72.5531 220.12 74.4622C219.658 76.3714 218.527 78.2158 216.753 79.0621C218.211 79.1655 219.699 79.2662 221.113 78.8985C222.527 78.5309 223.879 77.605 224.366 76.2285C224.607 75.5494 224.63 74.7941 224.971 74.1598C225.836 72.5545 228.224 72.4813 229.398 71.0851C229.867 70.5263 230.094 69.8063 230.262 69.0963C231.253 64.9186 230.557 60.4825 229.049 56.4623C228.529 55.0767 227.882 53.6815 226.767 52.7076C225.819 51.8789 224.607 51.4222 223.409 51.0323C221.661 50.4632 219.86 49.9969 218.022 49.9368C217.224 49.89 216.423 49.9833 215.657 50.2128C214.901 50.4858 214.197 50.8865 213.576 51.3974C210.697 53.6363 208.737 57.2145 208.997 60.8509C209.155 63.0512 210.088 65.1336 211.286 66.9861C211.705 67.634 212.695 69.0156 213.616 68.6082C214.45 68.2387 214.807 66.6474 214.697 65.866Z" fill="#2F2E41"/>
<path d="M100.378 90.8738H109.533V81.7245H100.378V90.8738ZM146.333 81.7245H137.179V90.8738H146.333V81.7245ZM118.778 90.8738H127.933V81.7245H118.778V90.8738Z" fill="#69D5B1"/>
<path d="M47.1924 54.4591C51.4465 54.4591 54.8951 51.7707 54.8951 48.4544C54.8951 45.138 51.4465 42.4496 47.1924 42.4496C42.9383 42.4496 39.4896 45.138 39.4896 48.4544C39.4896 51.7707 42.9383 54.4591 47.1924 54.4591Z" fill="#2F2E41"/>
<path d="M48.5018 89.7948C48.5018 89.7948 55.4343 90.2567 56.6667 89.3329C57.8991 88.4091 63.137 90.5647 63.5992 91.7964C64.0613 93.0282 56.2045 93.1821 54.9721 93.1821C53.7397 93.1821 47.8856 95.0298 47.8856 95.0298L48.5018 89.7948Z" fill="#A0616A"/>
<path d="M34.2266 161.517C34.2266 161.517 30.9957 169.659 32.6814 170.642C34.367 171.625 52.0663 170.923 52.0663 170.923C52.0663 170.923 55.0161 169.098 51.6448 167.834C51.6448 167.834 48.8354 167.694 47.0093 166.571C45.1832 165.448 43.0762 163.342 43.0762 163.342C43.0762 163.342 42.9357 160.253 41.812 160.955C41.4757 161.176 41.1896 161.466 40.9719 161.804C40.7541 162.143 40.6097 162.523 40.5477 162.92L34.2266 161.517Z" fill="#2F2E41"/>
<path opacity="0.1" d="M34.2266 161.517C34.2266 161.517 30.9957 169.659 32.6814 170.642C34.367 171.625 52.0663 170.923 52.0663 170.923C52.0663 170.923 55.0161 169.098 51.6448 167.834C51.6448 167.834 48.8354 167.694 47.0093 166.571C45.1832 165.448 43.0762 163.342 43.0762 163.342C43.0762 163.342 42.9357 160.253 41.812 160.955C41.4757 161.176 41.1896 161.466 40.9719 161.804C40.7541 162.143 40.6097 162.523 40.5477 162.92L34.2266 161.517Z" fill="black"/>
<path d="M87.9739 111.483L65.4311 89.0441L87.951 66.6055L81.0852 59.7664L51.7224 89.0441L81.1081 118.322L87.9739 111.483Z" fill="#69D5B1"/>
<path d="M29.245 164.008C29.245 164.008 25.7017 172.938 27.5504 174.015C29.399 175.093 48.8099 174.323 48.8099 174.323C48.8099 174.323 52.0451 172.322 48.3478 170.936C48.3478 170.936 45.2667 170.782 43.264 169.55C41.2612 168.319 38.9504 166.009 38.9504 166.009C38.9504 166.009 38.7964 162.622 37.5639 163.392C37.1952 163.634 36.8814 163.952 36.6426 164.323C36.4038 164.694 36.2454 165.111 36.1775 165.547L29.245 164.008Z" fill="#2F2E41"/>
<path d="M47.4234 107.347L45.2667 126.747C45.2667 126.747 44.4964 135.985 42.1856 137.987C42.1856 137.987 42.1856 140.912 41.4153 141.836L40.3369 154C40.3369 154 41.8775 158.465 41.7234 159.235C41.5694 160.004 42.3396 162.468 42.1856 162.776C42.0315 163.084 34.791 162.776 34.791 162.776L36.3315 137.987L41.1072 103.498L47.4234 107.347Z" fill="#2F2E41"/>
<path opacity="0.1" d="M47.4234 107.347L45.2667 126.747C45.2667 126.747 44.4964 135.985 42.1856 137.987C42.1856 137.987 42.1856 140.912 41.4153 141.836L40.3369 154C40.3369 154 41.8775 158.465 41.7234 159.235C41.5694 160.004 42.3396 162.468 42.1856 162.776C42.0315 163.084 34.791 162.776 34.791 162.776L36.3315 137.987L41.1072 103.498L47.4234 107.347Z" fill="black"/>
<path d="M43.572 106.731C43.572 106.731 41.8774 122.59 41.1072 125.977C40.6229 128.208 40.3138 130.473 40.1828 132.752C40.1828 132.752 40.0288 137.679 38.6423 139.065C38.2366 139.466 37.9179 139.947 37.7059 140.476C37.4939 141.006 37.3931 141.574 37.4099 142.144C37.4099 142.144 36.0234 157.695 36.7936 159.543C37.5639 161.39 38.3342 162.93 37.5639 164.162C36.7936 165.393 28.3206 165.393 28.3206 164.469C28.3206 163.546 28.3206 162.776 27.8585 162.314C27.3963 161.852 27.8585 158.927 27.8585 158.927C27.8585 158.927 26.0098 145.223 27.7044 141.22C29.399 137.217 30.1693 126.285 30.1693 126.285C30.1693 126.285 28.9369 113.814 27.3963 111.812C25.8558 109.811 27.7044 102.728 27.7044 102.728L43.572 106.731Z" fill="#2F2E41"/>
<path d="M39.2348 57.4832C39.4139 57.8909 39.8426 58.1179 40.2328 58.3328C42.4946 59.5782 44.3879 61.3838 46.2533 63.1686C45.7878 61.5922 45.887 59.9029 46.5337 58.3917C46.7564 57.8762 47.0483 57.3222 46.8891 56.7837C46.772 56.3878 46.4347 56.1022 46.1079 55.8496C45.3468 55.2613 44.5512 54.7189 43.7255 54.2251C43.1487 53.8802 41.9628 52.9621 41.3009 53.062C41.2661 53.9558 41.248 54.755 40.8563 55.5904C40.7634 55.7886 39.3033 57.639 39.2348 57.4832Z" fill="#A0616A"/>
<path d="M47.1153 59.4631C50.6037 59.4631 53.4315 56.6368 53.4315 53.1504C53.4315 49.664 50.6037 46.8377 47.1153 46.8377C43.6269 46.8377 40.7991 49.664 40.7991 53.1504C40.7991 56.6368 43.6269 59.4631 47.1153 59.4631Z" fill="#A0616A"/>
<path d="M47.4234 68.0854C47.4234 68.0854 48.5018 62.6965 45.4207 60.8488C42.3396 59.0012 38.7964 56.8457 38.7964 56.8457C38.7964 56.8457 37.718 56.6917 37.2558 59.0012C37.2558 59.0012 28.4747 60.6949 27.5504 69.0092C26.6261 77.3235 28.1666 89.487 28.1666 89.487C28.1666 89.487 26.7801 100.111 25.0855 105.808C25.0855 105.808 23.699 107.039 29.8612 105.192C36.0234 103.344 46.8072 110.427 46.8072 110.427C46.8072 110.427 47.8856 109.349 47.8856 108.579C47.8856 107.809 49.118 103.344 49.118 103.344C49.118 103.344 50.1964 84.406 50.6586 82.2505C51.1207 80.0949 48.8099 68.3933 47.4234 68.0854Z" fill="#575A89"/>
<path d="M45.6267 53.8007C46.0062 53.5905 46.4317 53.4773 46.8655 53.471C47.2998 53.4645 47.7239 53.3382 48.0909 53.1061C48.6875 52.6483 48.7313 51.7636 49.1678 51.1513C49.7997 50.2649 51.0603 50.1582 52.1484 50.2026C52.814 50.2297 53.5307 50.2694 54.0911 49.9097C54.6664 49.5403 54.9272 48.8445 55.1212 48.1891C55.3506 47.4142 55.499 46.4665 54.9305 45.8917C54.5358 45.4926 53.9127 45.4137 53.4741 45.0632C53.0194 44.6997 52.8323 44.1083 52.5852 43.5814C52.3039 42.9395 51.8591 42.3826 51.295 41.9663C50.4678 41.3918 49.4112 41.263 48.4039 41.2738C47.3966 41.2845 46.3851 41.4169 45.3854 41.2934C44.5663 41.1921 43.7496 40.9198 42.9332 41.0405C41.8928 41.1943 41.0321 41.9788 40.5195 42.8965C40.0069 43.8143 39.7869 44.8619 39.5736 45.8911L38.9935 48.6904C38.8136 49.5586 38.633 50.4499 38.7719 51.3256C39.0598 53.1409 40.6661 54.5839 40.7768 56.4186C40.8823 55.9119 41.112 55.4394 41.4452 55.0434C41.7785 54.6473 42.2049 54.3402 42.6862 54.1494C42.8068 54.0904 42.9439 54.0738 43.0752 54.1022C43.2348 54.1532 43.3281 54.3126 43.4288 54.4464C43.6927 54.797 44.5217 55.329 44.9916 55.0802C45.412 54.8577 45.0981 54.159 45.6267 53.8007Z" fill="#2F2E41"/>
<path d="M29.7071 82.5584C29.7071 82.5584 28.6288 89.333 33.0963 88.7171C33.0963 88.7171 35.4072 88.4092 35.7153 88.7171C36.0234 89.025 47.4234 87.0234 48.964 85.3298C48.964 85.3298 50.8126 84.7139 51.7369 85.6377C52.6613 86.5616 61.9045 87.4854 59.1316 84.7139C56.3586 81.9425 52.045 81.3266 52.045 81.3266L46.191 81.6346C46.191 81.6346 43.1099 82.5584 41.2612 81.6346C39.4126 80.7108 34.1747 81.0187 34.1747 81.0187L29.7071 82.5584Z" fill="#A0616A"/>
<path d="M36.0234 61.1568C36.0234 61.1568 29.0909 61.9266 29.0909 71.9346V84.7139C29.0909 84.7139 32.9423 83.0203 33.7126 83.1742C34.4829 83.3282 37.5639 81.1727 37.5639 81.1727C37.5639 81.1727 41.1072 72.8584 40.7991 70.5488C40.491 68.2393 40.645 61.4647 36.0234 61.1568Z" fill="#575A89"/>
<path d="M47.1153 52.3035C50.391 52.3035 53.0464 50.9249 53.0464 49.2242C53.0464 47.5235 50.391 46.1448 47.1153 46.1448C43.8396 46.1448 41.1842 47.5235 41.1842 49.2242C41.1842 50.9249 43.8396 52.3035 47.1153 52.3035Z" fill="#2F2E41"/>
<path d="M41.5694 54.921C42.718 54.921 43.6491 52.6117 43.6491 49.7631C43.6491 46.9144 42.718 44.6051 41.5694 44.6051C40.4208 44.6051 39.4896 46.9144 39.4896 49.7631C39.4896 52.6117 40.4208 54.921 41.5694 54.921Z" fill="#2F2E41"/>
</svg>
