<svg width="291" height="175" viewBox="0 0 291 175" fill="none" xmlns="http://www.w3.org/2000/svg">
<g clip-path="url(#clip0)">
<path d="M197.973 99.903L200.468 99.4722C200.708 99.4303 200.945 99.3792 201.184 99.3359C197.235 96.8877 194.237 93.1707 192.682 88.7956C191.128 84.4206 191.11 79.6477 192.632 75.2611C194.153 70.8746 197.123 67.1353 201.054 64.6576C204.985 62.1799 209.643 61.1112 214.263 61.627L210.992 69.399L218.741 62.6422C218.759 62.6467 218.777 62.6526 218.794 62.6599C221.331 63.5523 223.668 64.9352 225.67 66.7294C227.672 68.5237 229.301 70.6942 230.463 73.1171C231.625 75.54 232.298 78.1677 232.444 80.8503C232.589 83.5329 232.204 86.2179 231.31 88.7518C231.18 89.1203 231.026 89.4721 230.878 89.8282C233.065 88.7306 235.164 87.4528 236.875 85.8167C240.34 82.5013 242.238 77.9263 244.359 72.2897C248.562 61.1199 252.608 49.7885 256.492 38.4323C252.208 36.1169 248.89 32.3517 247.136 27.813C245.381 23.2744 245.305 18.2597 246.92 13.6697C247.128 13.0791 247.369 12.5105 247.625 11.952C247.688 11.8123 247.753 11.6734 247.82 11.5356C248.079 11.0002 248.354 10.4756 248.655 9.97216C248.704 9.88962 248.759 9.81239 248.809 9.73075C249.071 9.30625 249.347 8.89433 249.638 8.49496C249.746 8.34502 249.854 8.1955 249.966 8.04912C250.295 7.61911 250.636 7.20069 250.996 6.80122C251.116 6.66757 251.243 6.54268 251.367 6.41248C251.643 6.12137 251.927 5.83906 252.218 5.56553C252.372 5.42152 252.524 5.27648 252.682 5.13758C252.722 5.10195 252.76 5.06305 252.8 5.02771C252.802 5.03032 252.804 5.03312 252.806 5.03569C256.414 1.89556 261.01 0.117288 265.795 0.00994376C270.58 -0.0974009 275.251 1.47297 278.997 4.44811L274.741 14.5619L282.401 7.88551C285.082 11.2965 286.602 15.4738 286.738 19.8079C286.874 24.1421 285.62 28.4063 283.159 31.9785C283.166 31.981 283.173 31.9829 283.18 31.9854C283.096 32.1081 283.001 32.2205 282.915 32.3411C282.754 32.5674 282.588 32.7896 282.419 33.0079C282.202 33.2878 281.976 33.5582 281.745 33.825C281.571 34.0264 281.399 34.2295 281.218 34.4232C280.952 34.7066 280.674 34.9749 280.395 35.2417C280.231 35.3974 280.075 35.5609 279.907 35.7108C279.467 36.1036 279.011 36.4763 278.541 36.829C278.375 36.9525 278.201 37.0614 278.033 37.1797C277.702 37.4119 277.37 37.6407 277.027 37.8526C276.814 37.984 276.595 38.1041 276.378 38.2277C276.063 38.4067 275.746 38.5801 275.423 38.7421C275.193 38.8569 274.962 38.9659 274.729 39.0722C274.397 39.2234 274.06 39.3636 273.72 39.497C273.492 39.5865 273.265 39.6771 273.034 39.7584C272.653 39.8926 272.265 40.0092 271.876 40.1208C271.679 40.1773 271.486 40.2418 271.288 40.2923C270.703 40.4411 270.113 40.5678 269.515 40.6648C269.403 40.6831 269.288 40.69 269.176 40.7064C268.68 40.7784 268.182 40.8365 267.68 40.872C267.465 40.8872 267.248 40.8893 267.031 40.8978C266.625 40.9135 266.219 40.9216 265.811 40.9129C265.573 40.9078 265.335 40.8955 265.096 40.8821C264.698 40.8596 264.3 40.825 263.902 40.7783C263.666 40.7511 263.432 40.724 263.196 40.6884C262.769 40.6237 262.343 40.5392 261.917 40.4466C261.889 40.4405 261.861 40.4368 261.833 40.4306C260.193 45.2216 258.523 50.0023 256.823 54.7728C258.896 52.9105 261.329 51.491 263.972 50.6015C266.615 49.712 269.412 49.3711 272.192 49.6C274.971 49.8288 277.675 50.6224 280.136 51.9321C282.597 53.2418 284.765 55.04 286.505 57.2163L279.423 65.0379L289.012 61.2153C291.341 66.0928 291.636 71.6941 289.832 76.7885C289.206 78.5787 288.33 80.2713 287.229 81.816C284.86 85.1625 281.539 87.7209 277.696 89.1593C273.853 90.5977 269.666 90.8497 265.678 89.8827C261.69 88.9156 258.085 86.7742 255.331 83.736C252.576 80.6978 250.799 76.9032 250.231 72.8443C250.051 73.325 249.877 73.8117 249.696 74.2918C247.824 79.2645 245.495 85.453 240.818 89.9272C237.648 92.9598 233.748 94.8838 230.005 96.5104C227.569 97.5695 225.099 98.5487 222.598 99.4479C219.816 101.132 216.674 102.132 213.43 102.366C209.483 103.461 205.486 104.375 201.451 105.081L198.936 105.514C196.675 105.9 194.357 106.299 192.056 106.757C192.387 106.856 192.719 106.949 193.048 107.065C197.148 108.506 200.683 111.211 203.141 114.79C205.6 118.369 206.856 122.636 206.728 126.974L190.956 131.808L205.227 134.071C203.922 137.275 201.825 140.097 199.131 142.272C196.438 144.447 193.236 145.905 189.826 146.509C186.415 147.114 182.907 146.845 179.629 145.728C176.351 144.612 173.409 142.683 171.079 140.123C171.224 140.608 171.37 141.092 171.516 141.575C171.805 142.535 172.093 143.49 172.369 144.436C176.124 157.322 174.508 167.459 167.817 172.977L164.187 168.588C170.699 163.216 168.678 152.147 166.896 146.026C166.625 145.097 166.342 144.159 166.057 143.216C163.611 135.102 160.839 125.904 164.43 117.452C169.842 104.713 185.44 102.046 197.973 99.903Z" fill="#F2F2F2"/>
<path d="M193.351 174.63H82.8501C79.2264 174.63 75.7512 173.193 73.1889 170.634C70.6266 168.075 69.1871 164.604 69.1871 160.986V110.428C69.1871 109.693 69.3369 108.967 69.6273 108.292C69.9177 107.618 70.3426 107.01 70.8762 106.505L129.43 51.0744C131.772 48.8582 134.875 47.6229 138.1 47.6229C141.326 47.6229 144.429 48.8582 146.77 51.0744L202.599 103.924C203.993 105.244 205.104 106.834 205.863 108.597C206.622 110.36 207.013 112.259 207.013 114.179V160.986C207.013 162.777 206.66 164.552 205.973 166.207C205.287 167.863 204.28 169.367 203.012 170.634C201.743 171.901 200.237 172.906 198.579 173.591C196.921 174.277 195.145 174.63 193.351 174.63Z" fill="#3F3D56"/>
<path opacity="0.1" d="M69.1871 111.258H205.865V166.391C205.865 168.576 204.996 170.672 203.449 172.217C201.901 173.762 199.803 174.63 197.615 174.63H77.4373C75.2492 174.63 73.1507 173.762 71.6035 172.217C70.0563 170.672 69.1871 168.576 69.1871 166.391V111.258Z" fill="black"/>
<path d="M181.263 67.8147H94.6509C90.499 67.8147 87.1333 71.1759 87.1333 75.3222V161.818C87.1333 165.964 90.499 169.325 94.6509 169.325H181.263C185.414 169.325 188.78 165.964 188.78 161.818V75.3222C188.78 71.1759 185.414 67.8147 181.263 67.8147Z" fill="#69D5B1"/>
<path opacity="0.1" d="M188.78 113.538V169.325H87.1332V113.538L137.957 138.069L188.78 113.538Z" fill="black"/>
<path d="M137.957 141.223L72.8356 109.79C72.4328 109.596 71.9872 109.507 71.5405 109.531C71.0938 109.556 70.6606 109.693 70.2816 109.931C69.9027 110.168 69.5903 110.498 69.3737 110.889C69.1572 111.28 69.0436 111.719 69.0436 112.166V166.248C69.0436 167.33 69.257 168.401 69.6716 169.401C70.0862 170.4 70.6939 171.309 71.46 172.074C72.2261 172.839 73.1356 173.446 74.1365 173.86C75.1375 174.274 76.2103 174.487 77.2937 174.487H198.62C199.703 174.487 200.776 174.274 201.777 173.86C202.778 173.446 203.687 172.839 204.453 172.074C205.22 171.309 205.827 170.4 206.242 169.401C206.656 168.401 206.87 167.33 206.87 166.248V113.093C206.87 112.547 206.731 112.011 206.467 111.534C206.203 111.057 205.822 110.655 205.359 110.365C204.897 110.075 204.368 109.908 203.823 109.878C203.278 109.848 202.734 109.956 202.243 110.194L137.957 141.223Z" fill="#3F3D56"/>
<path d="M124.318 77.1341H95.891V81.1487H124.318V77.1341Z" fill="#F2F2F2"/>
<path d="M178.013 91.7585H93.5939V94.0526H178.013V91.7585Z" fill="#F2F2F2"/>
<path d="M178.013 99.5009H93.5939V101.795H178.013V99.5009Z" fill="#F2F2F2"/>
<path d="M178.013 107.243H93.5939V109.537H178.013V107.243Z" fill="#F2F2F2"/>
<path d="M17.5023 174.487H254.104" stroke="#3F3D56" stroke-miterlimit="10"/>
<path d="M0 139.176C0 156.083 10.6208 169.764 23.7461 169.764L0 139.176Z" fill="#46455B"/>
<path d="M23.7462 169.764C23.7462 152.667 35.5984 138.833 50.2455 138.833L23.7462 169.764Z" fill="#69D5B1"/>
<path d="M8.60364 140.709C8.60364 156.769 15.3763 169.764 23.7461 169.764L8.60364 140.709Z" fill="#69D5B1"/>
<path d="M23.7462 169.764C23.7462 147.918 37.4455 130.241 54.3752 130.241L23.7462 169.764Z" fill="#46455B"/>
<path d="M18.7505 169.98C18.7505 169.98 22.1181 169.876 23.1331 169.155C24.148 168.433 28.3133 167.571 28.565 168.729C28.8168 169.886 33.6259 174.486 29.8239 174.516C26.0219 174.547 20.9898 173.925 19.9768 173.309C18.9638 172.692 18.7505 169.98 18.7505 169.98Z" fill="#A8A8A8"/>
<path opacity="0.2" d="M29.8918 174.113C26.0898 174.144 21.0576 173.522 20.0447 172.906C19.2732 172.436 18.9658 170.753 18.863 169.976C18.7917 169.979 18.7505 169.98 18.7505 169.98C18.7505 169.98 18.9638 172.692 19.9768 173.309C20.9898 173.925 26.0219 174.547 29.8239 174.516C30.9214 174.507 31.3005 174.117 31.2797 173.54C31.1272 173.889 30.7086 174.107 29.8918 174.113Z" fill="black"/>
<path d="M206.657 46.6749C206.485 48.2104 205.312 49.4472 204.877 50.9301C204.223 53.162 205.354 55.5571 206.901 57.2954C208.149 58.6832 209.661 59.8098 211.348 60.6099C213.036 61.41 214.865 61.8677 216.731 61.9564C217.279 62.0045 217.831 61.9444 218.356 61.7795C218.825 61.5912 219.247 61.3032 219.593 60.9356C220.758 59.7674 221.383 58.1488 221.632 56.519C221.881 54.8892 221.785 53.2288 221.687 51.5829C221.688 51.2427 221.626 50.9053 221.504 50.5873C221.346 50.2844 221.127 50.0165 220.863 49.7995C220.024 49.0311 219.1 48.3609 218.109 47.8019C217.661 47.6014 217.266 47.2995 216.955 46.9202C216.768 46.5951 216.647 46.2364 216.599 45.8645L216.294 44.3164C216.24 43.8702 216.088 43.4416 215.848 43.0614C215.31 42.3374 214.282 42.2389 213.381 42.2036L210.077 42.0742C209.049 42.0339 207.695 41.7396 206.692 41.9412C205.756 42.1294 206.067 42.9914 206.237 43.7764C206.484 44.7241 206.625 45.6962 206.657 46.6749Z" fill="#A0616A"/>
<path opacity="0.1" d="M206.657 46.6749C206.485 48.2104 205.312 49.4472 204.877 50.9301C204.223 53.162 205.354 55.5571 206.901 57.2954C208.149 58.6832 209.661 59.8098 211.348 60.6099C213.036 61.41 214.865 61.8677 216.731 61.9564C217.279 62.0045 217.831 61.9444 218.356 61.7795C218.825 61.5912 219.247 61.3032 219.593 60.9356C220.758 59.7674 221.383 58.1488 221.632 56.519C221.881 54.8892 221.785 53.2288 221.687 51.5829C221.688 51.2427 221.626 50.9053 221.504 50.5873C221.346 50.2844 221.127 50.0165 220.863 49.7995C220.024 49.0311 219.1 48.3609 218.109 47.8019C217.661 47.6014 217.266 47.2995 216.955 46.9202C216.768 46.5951 216.647 46.2364 216.599 45.8645L216.294 44.3164C216.24 43.8702 216.088 43.4416 215.848 43.0614C215.31 42.3374 214.282 42.2389 213.381 42.2036L210.077 42.0742C209.049 42.0339 207.695 41.7396 206.692 41.9412C205.756 42.1294 206.067 42.9914 206.237 43.7764C206.484 44.7241 206.625 45.6962 206.657 46.6749Z" fill="black"/>
<path d="M227.672 115.786C227.204 120.91 226.736 126.035 226.268 131.158C225.902 135.19 225.528 139.238 224.81 143.218C224.561 144.59 224.271 145.954 223.926 147.307C222.966 151.063 221.574 154.733 221.125 158.584C221.11 158.694 221.099 158.808 221.087 158.921C221.036 159.772 220.875 160.614 220.607 161.423C220.382 162.011 220.037 162.547 219.794 163.128C219.309 164.289 219.245 165.573 219.186 166.832C217.482 165.874 215.616 165.237 213.681 164.952C212.747 164.813 211.707 164.714 211.071 164.018C210.367 163.248 210.445 162.07 210.563 161.036C210.934 157.826 211.305 154.617 211.674 151.41C211.795 150.03 212.029 148.662 212.376 147.321C212.504 146.875 212.657 146.436 212.813 145.997C213.029 145.392 213.246 144.788 213.409 144.167C213.644 143.164 213.808 142.146 213.901 141.12C214.281 137.89 214.74 134.668 215.142 131.441L215.163 131.271C215.766 126.38 216.224 121.465 216.092 116.539C216.073 115.809 216.042 115.08 215.995 114.348C215.929 113.288 215.832 112.726 216.711 112.063C217.683 111.331 218.962 110.819 220.073 110.34C220.671 110.08 227.256 107.745 227.41 108.258C227.719 109.35 227.881 110.479 227.892 111.614C227.897 113.008 227.823 114.4 227.672 115.786Z" fill="#605D82"/>
<path opacity="0.1" d="M224.81 143.218C224.562 144.59 224.271 145.954 223.926 147.307C222.966 151.063 221.574 154.733 221.125 158.584C221.11 158.694 221.099 158.808 221.087 158.921C218.151 154.733 215.678 150.229 212.813 145.997C213.029 145.392 213.246 144.788 213.409 144.167C213.644 143.164 213.808 142.146 213.901 141.12C214.281 137.89 214.74 134.668 215.142 131.441L215.163 131.271C215.331 131.956 215.571 132.622 215.879 133.256C217.803 137.161 222.375 139.134 224.611 142.871C224.68 142.987 224.746 143.103 224.81 143.218Z" fill="black"/>
<path d="M200.987 108.885C201.084 112.017 201.586 115.12 202.087 118.213L203.121 124.595C203.686 128.087 204.275 131.651 205.93 134.779C207.168 137.119 208.952 139.116 210.566 141.215C214.533 146.376 217.513 152.223 221.274 157.535C222.367 159.079 223.93 160.749 225.796 160.426C227.021 160.215 227.91 159.197 228.873 158.411C230.008 157.486 231.376 156.809 232.269 155.648C233.162 154.488 233.337 152.56 232.127 151.734C231.689 151.492 231.224 151.302 230.742 151.168C228.867 150.456 227.653 148.627 226.88 146.778C226.108 144.928 225.64 142.94 224.611 141.22C222.375 137.483 217.803 135.509 215.878 131.604C214.8 129.416 214.697 126.895 214.615 124.458L214.405 118.246C214.382 117.567 214.364 116.86 214.641 116.239C215.377 114.586 217.6 114.432 219.399 114.222C221.442 113.983 223.421 113.36 225.231 112.385C226.268 111.826 227.281 111.113 227.835 110.075C228.341 109.128 228.411 108.017 228.47 106.945L229.093 95.6881C229.147 94.7196 229.196 93.7182 228.854 92.8103C227.996 90.5305 225.113 89.7855 222.677 89.8943C218.143 90.0967 213.957 92.0444 209.682 93.3597C208.623 93.6933 207.548 93.9733 206.461 94.1987C205.502 94.391 204.341 94.3112 203.426 94.6193C201.798 95.1672 201.84 98.7211 201.609 100.195C201.132 103.067 200.924 105.976 200.987 108.885Z" fill="#605D82"/>
<path d="M225.181 160.898C225.58 161.301 225.711 161.891 225.815 162.448C226.393 165.54 226.693 168.678 226.713 171.823C226.686 172.117 226.745 172.411 226.882 172.672C226.994 172.828 227.147 172.951 227.323 173.027C228.479 173.577 229.82 172.81 230.783 171.968C232.568 170.407 234.078 168.311 234.18 165.943C234.161 165.333 234.182 164.723 234.244 164.116C234.4 163.224 234.922 162.448 235.381 161.668C236.162 160.34 236.793 158.928 237.26 157.46C237.436 156.909 237.552 156.215 237.12 155.83C236.966 155.71 236.792 155.619 236.605 155.563L231.386 153.627C230.933 153.459 229.808 156.347 229.629 156.662C229.192 157.435 228.758 157.873 227.881 158.051C226.986 158.233 225.921 157.972 225.086 158.418C223.673 159.172 224.381 160.093 225.181 160.898Z" fill="#535070"/>
<path d="M217.126 162.68C217.029 162.487 216.894 162.316 216.729 162.177C216.487 162.024 216.213 161.931 215.928 161.905C214.934 161.737 213.756 161.626 213.07 162.363C212.427 163.055 212.538 164.182 212 164.958C211.83 165.203 211.599 165.406 211.452 165.666C211.269 166.063 211.186 166.499 211.211 166.936C211.184 168.139 211.156 169.344 211.239 170.544C211.309 171.55 211.479 172.604 212.109 173.392C213.12 174.657 214.943 174.839 216.562 174.921L217.872 174.988C218.233 175.032 218.6 174.998 218.947 174.889C219.162 174.79 219.354 174.649 219.513 174.474C219.673 174.299 219.795 174.094 219.873 173.871C220.556 172.178 219.475 170.353 218.809 168.652C218.044 166.698 218.182 164.528 217.126 162.68Z" fill="#535070"/>
<path d="M206.277 38.0234C206.261 37.8517 206.287 37.6787 206.351 37.5187C206.543 37.1797 207.044 37.272 207.423 37.3672C208.943 37.7501 210.546 37.4035 212.112 37.4929C213.678 37.5824 215.442 38.3642 215.757 39.8987C216.893 39.094 217.873 38.0886 218.648 36.9321C219.082 36.2826 219.461 35.5387 219.402 34.7598C219.317 33.6363 218.373 32.7961 217.499 32.0835L214.893 29.9596C214.552 29.6457 214.157 29.395 213.727 29.2189C213.125 29.0136 212.469 29.1114 211.834 29.1118C209.937 29.1131 207.915 28.2511 206.228 29.117C205.524 29.4787 204.994 30.0985 204.482 30.7028L202.157 33.4516C201.982 33.6268 201.854 33.8433 201.785 34.0811C201.719 34.4166 201.892 34.7477 201.952 35.0843C202.062 35.6984 201.797 36.3538 202.001 36.9435C202.339 37.9225 203.529 38.0611 204.257 38.6224C204.528 38.8316 204.953 39.5405 205.276 39.5318C205.859 39.5162 206.262 38.4758 206.277 38.0234Z" fill="#3F3D56"/>
<path d="M210.223 46.126C214.335 46.126 217.669 42.7968 217.669 38.6901C217.669 34.5833 214.335 31.2541 210.223 31.2541C206.11 31.2541 202.777 34.5833 202.777 38.6901C202.777 42.7968 206.11 46.126 210.223 46.126Z" fill="#A0616A"/>
<path d="M211.967 54.9638C211.714 54.2411 211.237 53.6176 210.606 53.1837C209.975 52.7498 209.221 52.528 208.455 52.5505C208.236 52.5913 208.01 52.5627 207.807 52.4687C207.693 52.381 207.602 52.267 207.541 52.1364C207.088 51.3233 206.725 50.464 206.456 49.5732C206.337 49.1796 206.174 48.7156 205.776 48.6133C205.611 48.5917 205.443 48.6154 205.29 48.6817C205.137 48.748 205.006 48.8545 204.909 48.9898C204.72 49.2622 204.513 49.5219 204.29 49.7673C203.353 50.6035 201.693 49.8414 200.699 50.6085C200.537 50.7339 200.403 50.8944 200.232 51.0084C200.062 51.111 199.878 51.1897 199.685 51.2425C197.766 51.8682 195.884 52.6042 194.05 53.4467C194.711 57.423 195.389 61.4687 196.938 65.1905C197.676 66.9617 198.512 68.6963 199.102 70.5216C200.411 74.5659 200.469 78.8931 200.484 83.1432C200.494 86.052 200.479 89.023 199.537 91.7754C199.283 92.3836 199.105 93.0204 199.005 93.6716C198.948 94.3275 199.139 95.0507 199.671 95.4393C199.98 95.6408 200.332 95.7645 200.699 95.7999C202.332 96.0392 203.978 95.6052 205.586 95.2334C209.896 94.2367 214.291 93.6664 218.677 93.0976L226.028 92.1444C226.555 92.1087 227.071 91.9756 227.549 91.7519C228.894 91.0164 229.022 88.9958 228.186 87.7115C227.786 87.0958 227.221 86.5906 226.884 85.9379C226.548 85.2851 226.519 84.3722 227.099 83.9201C228.277 83.0004 227.925 81.294 227.982 79.8016C228.139 75.6287 228.117 71.4541 227.918 67.2778C227.859 66.4133 227.845 65.5464 227.876 64.6804C228.007 63.2131 228.278 61.7617 228.687 60.3462L230.921 51.5635C230.337 50.6427 229.22 50.0585 228.162 49.7933C227.103 49.528 226.001 49.45 224.959 49.1275C222.823 48.4667 220.922 46.7898 218.693 46.9461C218.524 46.9491 218.358 46.9896 218.207 47.0646C217.704 47.3491 217.784 48.0729 217.751 48.6492C217.68 49.9244 216.741 50.9901 215.704 51.7373C214.667 52.4845 213.482 53.0294 212.53 53.8815C212.361 54.0085 212.223 54.1717 212.126 54.3589C212.028 54.5462 211.974 54.7529 211.967 54.9638Z" fill="#3F3D56"/>
<path d="M182.463 63.2944C181.97 63.6144 181.445 63.884 180.897 64.0992C180.361 64.2585 179.854 64.5041 179.397 64.8263C179.186 65.0083 179.009 65.2263 178.875 65.47C178.623 65.9164 178.496 66.4222 178.506 66.9345C178.517 67.4469 178.664 67.947 178.935 68.3828C179.205 68.8185 179.587 69.1739 180.041 69.4118C180.496 69.6497 181.006 69.7614 181.518 69.7352C182.2 69.659 182.861 69.4619 183.473 69.1532L188.725 66.8805C189.614 66.4958 190.574 66.045 190.994 65.1733C191.043 65.092 191.061 64.9958 191.045 64.9023C191.003 64.8034 190.926 64.723 190.829 64.6758C189.645 63.9076 188.609 62.932 187.771 61.7962C187.556 61.504 187.292 60.8142 186.988 60.639C185.876 59.9997 183.353 62.7178 182.463 63.2944Z" fill="#A0616A"/>
<path d="M238.607 61.4295L240.543 63.6383C240.959 64.1125 241.375 64.5873 241.754 65.0913C242.684 66.3718 243.431 67.7761 243.971 69.2633C244.392 70.3662 244.741 71.541 244.594 72.7121C244.497 73.3125 244.334 73.9006 244.11 74.4661C243.755 75.5537 243.315 76.6118 242.794 77.6306C242.356 78.4046 241.861 79.1452 241.314 79.8463C239.815 81.8305 238.174 83.7042 236.406 85.453C235.744 86.1073 235.466 87.1654 235.178 88.05C234.647 89.6815 233.382 90.9523 232.159 92.1573C231.766 92.5717 231.332 92.945 230.863 93.2713C230.16 93.7232 229.339 93.9567 228.503 93.9423C228.138 93.9448 227.776 93.87 227.441 93.7226C226.604 93.3257 226.179 92.3593 226.091 91.4382C226.013 90.6023 226.154 89.7605 226.499 88.9948C227.61 86.5369 230.463 85.4718 232.479 83.6784C233.662 82.6268 234.566 81.3058 235.458 79.9992C236.064 79.1834 236.57 78.298 236.965 77.3621C237.415 76.1619 237.24 74.7411 237.633 73.5212C237.8 73.0055 238.095 72.5399 238.274 72.0284C238.453 71.5169 238.498 70.9098 238.185 70.4672C237.949 70.1859 237.648 69.966 237.309 69.8262C236.02 69.1732 234.577 68.3328 234.331 66.9112C234.233 66.1228 234.439 65.3266 234.908 64.6847C235.375 64.0514 235.921 63.4801 236.532 62.9843C237.096 62.4868 238.043 61.9271 238.607 61.4295Z" fill="#A0616A"/>
<path d="M181.22 66.3777C180.878 65.688 180.451 64.9844 179.761 64.6414C179.427 64.4964 179.066 64.4208 178.702 64.4193C178.337 64.4178 177.976 64.4903 177.64 64.6325C176.971 64.9206 176.345 65.2988 175.779 65.7566L174.11 66.9852C173.731 67.2331 173.397 67.5417 173.119 67.8986C172.856 68.3315 172.68 68.8119 172.603 69.3125C172.312 70.4542 172.223 71.6378 172.341 72.81C172.605 74.6894 173.74 76.3303 174.989 77.7609C175.769 78.6549 176.733 79.5571 177.92 79.5952C178.432 79.6117 179.002 79.41 179.215 78.9444C179.289 78.7598 179.328 78.5632 179.331 78.3645C179.459 76.2681 178.708 74.2204 177.832 72.3108C177.553 71.8108 177.388 71.2553 177.349 70.6842C177.343 70.588 177.368 70.4925 177.421 70.4117C177.496 70.3332 177.597 70.284 177.706 70.2728C178.904 70.036 180.969 70.9659 181.809 69.6367C182.354 68.775 181.608 67.1591 181.22 66.3777Z" fill="#A0616A"/>
<path d="M205.887 35.6836C205.871 35.5119 205.896 35.3389 205.961 35.1789C206.153 34.8399 206.654 34.9321 207.032 35.0274C208.553 35.4103 210.155 35.0637 211.721 35.1531C213.287 35.2426 215.051 36.0244 215.366 37.5589C216.503 36.7542 217.483 35.7488 218.257 34.5923C218.692 33.9428 219.071 33.1989 219.011 32.4199C218.926 31.2965 217.982 30.4562 217.108 29.7437L214.503 27.6197C214.161 27.3059 213.766 27.0551 213.336 26.8791C212.735 26.6738 212.079 26.7716 211.443 26.772C209.547 26.7732 207.525 25.9113 205.838 26.7772C205.133 27.1388 204.603 27.7586 204.092 28.363L201.767 31.1118C201.592 31.287 201.464 31.5035 201.395 31.7412C201.329 32.0768 201.501 32.4079 201.561 32.7445C201.671 33.3586 201.406 34.014 201.61 34.6037C201.948 35.5827 203.138 35.7213 203.866 36.2826C204.137 36.4917 204.562 37.2007 204.885 37.192C205.469 37.1764 205.872 36.136 205.887 35.6836Z" fill="#3F3D56"/>
<path d="M190.072 56.0616C189.772 56.2552 189.508 56.5005 189.293 56.7861C189.02 57.1983 188.964 57.7187 188.73 58.1539C188.228 59.0852 187.054 59.4164 186.322 60.1804C186.206 60.2855 186.125 60.424 186.091 60.5768C186.087 60.7842 186.157 60.9862 186.288 61.1474L189.818 66.6908C190.994 66.7941 192.122 66.0586 193.298 66.1562C193.737 66.1927 194.186 66.3442 194.607 66.2146C194.909 66.0811 195.192 65.9085 195.448 65.7013C196.15 65.2582 197.084 65.2066 197.673 64.622C198.238 64.061 198.31 63.1833 198.303 62.3877C198.312 61.6968 198.242 61.0071 198.093 60.3323C197.573 58.2045 195.944 56.5717 194.922 54.6869C194.425 53.7693 194.154 53.2321 193.102 53.8622C192.044 54.4955 191.068 55.3343 190.072 56.0616Z" fill="#3F3D56"/>
<path d="M232.954 53.2583C233.617 53.6886 234.216 54.2119 234.73 54.8121C235.268 55.5047 235.573 56.3524 236.089 57.061C236.59 57.7478 237.272 58.2797 237.84 58.9121C238.702 59.8712 239.285 61.0413 239.858 62.1957C238.459 64.0187 236.932 65.7413 235.291 67.3507C235.108 67.5657 234.868 67.7237 234.598 67.806C234.414 67.8254 234.228 67.7992 234.057 67.7295C233.886 67.6599 233.735 67.549 233.617 67.4068C233.363 67.1404 233.183 66.8119 232.939 66.5352C232.366 65.9441 231.601 65.5748 230.781 65.4926C229.968 65.4141 229.15 65.4029 228.335 65.459C228.156 65.4789 227.975 65.4485 227.813 65.3713C227.692 65.288 227.594 65.1758 227.528 65.0448C226.572 63.4203 226.879 61.3807 227.216 59.5268L227.99 55.2727C228.102 54.4602 228.319 53.6655 228.634 52.9083C228.928 52.2827 229.583 51.2218 230.389 51.4091C231.202 51.5979 232.27 52.7673 232.954 53.2583Z" fill="#3F3D56"/>
<path d="M91.2968 81.1914C97.7987 81.1914 103.069 75.9181 103.069 69.4132C103.069 62.9082 97.7987 57.6349 91.2968 57.6349C84.795 57.6349 79.5242 62.9082 79.5242 69.4132C79.5242 75.9181 84.795 81.1914 91.2968 81.1914Z" fill="white"/>
<path d="M91.2968 55.6277C88.514 55.6277 85.7938 56.4517 83.48 57.9957C81.1663 59.5396 79.3629 61.734 78.298 64.3015C77.2331 66.869 76.9545 69.6941 77.4973 72.4197C78.0402 75.1453 79.3802 77.649 81.3479 79.614C83.3156 81.5791 85.8226 82.9173 88.5519 83.4595C91.2812 84.0016 94.1101 83.7234 96.681 82.6599C99.252 81.5964 101.449 79.7955 102.995 77.4848C104.541 75.1742 105.367 72.4575 105.367 69.6785C105.356 65.9554 103.87 62.3878 101.234 59.7551C98.5973 57.1224 95.0249 55.6386 91.2968 55.6277ZM88.4084 77.1701L81.1976 69.969L83.2202 67.9492L88.4152 73.1372L99.3801 62.187L101.403 64.2068L88.4084 77.1701L88.4084 77.1701Z" fill="#57B894"/>
</g>
<defs>
<clipPath id="clip0">
<rect width="291" height="175" fill="white"/>
</clipPath>
</defs>
</svg>
